<svg xmlns="http://www.w3.org/2000/svg" width="185" height="25" viewBox="0 0 185 25"><path fill="#E20613" d="M41.518 6.706v-.001c0-.056-.095-.077-.095-.077-1.645-.483-3.03-1.796-3.447-3.341l-.076-.252s-.012-.066-.061-.066c-.048 0-.061.066-.061.066l-.076.251c-.417 1.545-1.801 2.859-3.447 3.342 0 0-.095.021-.095.077v.001c0 .056.095.077.095.077 1.646.484 3.031 1.797 3.447 3.342l.076.251s.013.067.061.067v-.001c.049 0 .061-.066.061-.066l.076-.251c.418-1.545 1.802-2.859 3.447-3.342-.001 0 .095-.021.095-.077zm3.422-4.423v-.001c0-.028-.049-.04-.049-.04-.851-.25-1.567-.929-1.782-1.727l-.04-.13S43.062.35 43.037.35s-.031.035-.031.035l-.04.129c-.215.8-.932 1.478-1.782 1.728 0 0-.049.011-.049.041 0 .028.049.04.049.04.85.25 1.567.93 1.782 1.728l.04.13s.006.035.031.035v-.002c.024 0 .032-.034.032-.034l.04-.13c.215-.8.931-1.478 1.782-1.728.001 0 .049-.011.049-.039z"></path><path d="M8.547 20.217c-.413.878-1.238 1.445-2.408 1.445-1.445 0-2.872-.98-2.872-3.13 0-1.84 1.101-3.198 2.82-3.198 1.187 0 2.012.533 2.511 1.565.034.086.052.121.155.086l2.562-.998c.069-.035.138-.104.052-.31-.774-1.754-2.511-3.285-5.348-3.285C2.648 12.392 0 14.989 0 18.514c0 3.303 2.442 6.071 6.105 6.071a5.777 5.777 0 005.383-3.56c.034-.104.017-.189-.155-.223l-2.58-.705c-.137-.034-.154.035-.206.12zm15.092 3.835c-1.893-3.801-4.231-8.582-5.882-11.797-.017-.035-.395-.052-.412 0-1.565 2.923-4.059 7.996-5.847 11.797-.069.172-.052.241.086.241h2.855c.223 0 .258-.052.31-.189.172-.412.395-.998.601-1.479h4.162c.172.43.43 1.067.636 1.531.052.12.121.137.206.137h3.216c.154 0 .172-.017.069-.241zM18.6 20.39h-2.39l1.169-2.614L18.6 20.39zm5.914 1.564c.584 1.685 2.046 2.631 4.385 2.631 2.7 0 4.885-1.169 4.885-3.818 0-2.15-1.273-3.319-3.474-3.629-.224-.035-.413-.069-.568-.085-1.548-.258-2.184-.585-2.184-1.377 0-.636.379-1.083 1.582-1.083.895 0 1.685.671 1.926 1.358.035.086.086.121.207.069l2.012-.809c.104-.035.172-.103.121-.293-.448-1.444-1.858-2.528-4.145-2.528-3.044 0-4.575 1.566-4.575 3.801 0 2.132 1.445 3.302 3.525 3.508.121.017.293.035.413.052 1.582.189 2.081.637 2.081 1.342 0 .79-.551 1.152-1.737 1.152-1.083 0-1.874-.757-2.081-1.393-.035-.138-.035-.138-.189-.086l-2.115.859c-.121.054-.138.14-.069.329zm14.669-9.167c0-.137-.017-.154-.172-.154h-2.855c-.154 0-.154-.017-.154.154v11.351c0 .172 0 .154.154.154h2.855c.154 0 .172-.017.172-.154V12.787zm12.695 11.806V12.666c-.023-.023-.063-.033-.141-.033h-2.614c-.137 0-.137.017-.137.206v5.16s-4.213-3.904-6.673-5.659c-.086-.051-.189-.068-.189.121l-.011.794v10.213c.003.218.006.425.011.652 0 .069.052.172.172.172h2.597c.154 0 .154 0 .154-.154v-5.263s4.059 3.732 6.656 5.675c.096.071.147.078.175.043zm14.563-6.096c0-3.37-2.631-6.105-6.105-6.105s-6.105 2.735-6.105 6.105c0 3.371 2.631 6.089 6.105 6.089s6.105-2.718 6.105-6.089zm-3.216 0c0 1.772-1.067 3.147-2.889 3.147-1.857 0-2.889-1.376-2.889-3.147s1.032-3.164 2.889-3.164c1.822 0 2.889 1.393 2.889 3.164zm20.18-2.815c0-1.936-1.279-3.078-3.406-3.078h-6.052c-.156 0-.208.035-.208.173v11.309c0 .225.017.242.156.242h6.537c2.057 0 3.303-1.279 3.303-3.181 0-1.366-.917-2.716-2.404-2.871 1.347-.38 2.074-1.332 2.074-2.594zm-3.148.449c0 .692-.397 1.107-1.106 1.107h-2.317v-2.214h2.317c.709.001 1.106.382 1.106 1.107zm.26 4.514c0 .813-.467 1.263-1.194 1.263h-2.49v-2.543h2.49c.693 0 1.194.536 1.194 1.28zm16.603 3.441c-1.902-3.821-4.254-8.628-5.914-11.862-.017-.035-.398-.052-.415 0-1.574 2.939-4.081 8.041-5.879 11.862-.069.173-.052.242.086.242h2.871c.225 0 .259-.052.311-.19.173-.414.398-1.003.606-1.487h4.185c.173.433.433 1.073.64 1.539.052.121.121.138.207.138h3.234c.154-.001.172-.018.068-.242zm-5.067-3.683H89.65l1.175-2.629 1.228 2.629zm17.828 3.458c-1.003-1.625-1.988-3.372-2.438-4.081 1.056-.502 1.608-1.626 1.608-3.216 0-2.127-1.417-3.96-4.081-3.96h-5.36c-.052 0-.138-.017-.138.155v11.413c0 .173 0 .155.138.155h2.835c.121 0 .138-.017.138-.155v-3.268l1.989-.035s1.262 1.989 1.85 3.113c.155.311.225.345.364.345h3.06c.192 0 .243-.12.035-.466zm-4.115-7.073c0 1.004-.518 1.695-1.452 1.729l-1.73.052V15.18h1.713c1.002 0 1.469.692 1.469 1.608zm14.32 3.441c-.415.883-1.245 1.453-2.421 1.453-1.453 0-2.887-.985-2.887-3.147 0-1.85 1.106-3.216 2.836-3.216 1.194 0 2.024.536 2.525 1.574.035.087.052.122.155.087l2.576-1.004c.07-.035.139-.104.053-.311-.778-1.764-2.526-3.303-5.378-3.303-3.389 0-6.052 2.611-6.052 6.156 0 3.32 2.456 6.105 6.138 6.105a5.811 5.811 0 005.413-3.58c.035-.104.017-.19-.155-.225l-2.595-.709c-.139-.035-.156.034-.208.12zm13.621-5.125a.308.308 0 00.04-.166v-2.11c0-.207-.017-.224-.19-.224h-7.816c-.173 0-.155.017-.155.173v11.309c0 .207.017.242.19.242h7.902c.174 0 .191-.035.191-.242v-2.231a.564.564 0 00-.015-.167h-5.258v-2.039h4.98c.041-.029.051-.087.051-.215v-2.109a.463.463 0 00-.022-.182h-5.009v-2.039h5.111zm6.887 6.474h-.002v-8.819c0-.138-.017-.155-.155-.155h-2.801c-.156 0-.156-.017-.156.155v11.413c0 .173 0 .155.156.155h7.314c.139 0 .139-.017.139-.155v-2.507c0-.036-.01-.049-.014-.072h-4.48v-.015h-.001zm17.74-3.078c0-3.389-2.645-6.138-6.138-6.138s-6.139 2.749-6.139 6.138 2.647 6.122 6.139 6.122c3.493 0 6.138-2.733 6.138-6.122zm-3.233 0c0 1.782-1.072 3.165-2.905 3.165-1.867 0-2.906-1.383-2.906-3.165 0-1.781 1.038-3.182 2.906-3.182 1.833 0 2.905 1.401 2.905 3.182zm15.687 6.131V12.635c-.023-.022-.063-.032-.138-.032h-2.629c-.138 0-.138.017-.138.207v5.188s-4.236-3.926-6.709-5.689c-.081-.049-.176-.061-.186.098v11.758c.004.068.054.162.169.162h2.611c.155 0 .155 0 .155-.155v-5.291s4.081 3.752 6.693 5.707c.092.068.143.076.172.043zm14.147-.545c-1.902-3.821-4.254-8.628-5.914-11.862-.017-.035-.397-.052-.415 0-1.574 2.939-4.081 8.041-5.88 11.862-.069.173-.052.242.087.242h2.87c.225 0 .259-.052.311-.19.174-.414.398-1.003.605-1.487h4.185c.173.433.433 1.073.64 1.539.052.121.121.138.207.138h3.234c.156-.001.173-.018.07-.242zm-5.067-3.683h-2.404l1.176-2.629 1.228 2.629z" fill="#FFF"></path></svg>